<svg id="Capa_1" enable-background="new 0 0 512 512" height="512" viewBox="0 0 512 512" width="512" xmlns="http://www.w3.org/2000/svg"><path d="m465.79 0h-419.581c-12.154 0-22.042 9.888-22.042 22.042v467.915c0 12.154 9.888 22.043 22.043 22.043h419.58c12.154 0 22.043-9.888 22.043-22.043v-467.915c0-12.154-9.888-22.042-22.043-22.042zm7.043 489.957c0 3.883-3.159 7.043-7.043 7.043h-84.352v-134.514c0-4.142-3.358-7.5-7.5-7.5h-114.344c-4.143 0-7.5 3.358-7.5 7.5s3.357 7.5 7.5 7.5h106.845v126.807h-220.878v-126.807h84.033c4.142 0 7.5-3.358 7.5-7.5s-3.358-7.5-7.5-7.5h-91.533c-4.142 0-7.5 3.358-7.5 7.5v134.514h-84.352c-3.883 0-7.042-3.159-7.042-7.043v-467.915c0-3.883 3.159-7.042 7.042-7.042h84.352v134.307c0 4.142 3.358 7.5 7.5 7.5h30.513c4.142 0 7.5-3.358 7.5-7.5s-3.358-7.5-7.5-7.5h-23.013v-126.807h220.878v126.807h-167.865c-4.142 0-7.5 3.358-7.5 7.5s3.358 7.5 7.5 7.5h175.364c4.142 0 7.5-3.358 7.5-7.5v-134.307h84.352c3.884 0 7.043 3.159 7.043 7.042z"/><path d="m373.939 177.493h-235.878c-4.142 0-7.5 3.358-7.5 7.5v141.807c0 4.142 3.358 7.5 7.5 7.5h235.878c4.142 0 7.5-3.358 7.5-7.5v-141.807c0-4.142-3.358-7.5-7.5-7.5zm-7.5 141.807h-220.878v-126.807h220.878z"/><path d="m107.259 36.391h-39.058c-4.142 0-7.5 3.358-7.5 7.5v26.594c0 4.142 3.358 7.5 7.5 7.5h39.058c4.142 0 7.5-3.358 7.5-7.5v-26.594c0-4.142-3.358-7.5-7.5-7.5zm-7.5 26.594h-24.058v-11.594h24.058z"/><path d="m107.259 93.418h-39.058c-4.142 0-7.5 3.358-7.5 7.5v26.594c0 4.142 3.358 7.5 7.5 7.5h39.058c4.142 0 7.5-3.358 7.5-7.5v-26.594c0-4.143-3.358-7.5-7.5-7.5zm-7.5 26.594h-24.058v-11.594h24.058z"/><path d="m107.259 150.444h-39.058c-4.142 0-7.5 3.358-7.5 7.5v26.594c0 4.142 3.358 7.5 7.5 7.5h39.058c4.142 0 7.5-3.358 7.5-7.5v-26.594c0-4.142-3.358-7.5-7.5-7.5zm-7.5 26.594h-24.058v-11.594h24.058z"/><path d="m107.259 207.471h-39.058c-4.142 0-7.5 3.358-7.5 7.5v26.594c0 4.142 3.358 7.5 7.5 7.5h39.058c4.142 0 7.5-3.358 7.5-7.5v-26.594c0-4.142-3.358-7.5-7.5-7.5zm-7.5 26.593h-24.058v-11.594h24.058z"/><path d="m107.259 264.497h-39.058c-4.142 0-7.5 3.358-7.5 7.5v26.594c0 4.142 3.358 7.5 7.5 7.5h39.058c4.142 0 7.5-3.358 7.5-7.5v-26.594c0-4.142-3.358-7.5-7.5-7.5zm-7.5 26.594h-24.058v-11.594h24.058z"/><path d="m107.259 321.524h-39.058c-4.142 0-7.5 3.358-7.5 7.5v26.594c0 4.142 3.358 7.5 7.5 7.5h39.058c4.142 0 7.5-3.358 7.5-7.5v-26.594c0-4.142-3.358-7.5-7.5-7.5zm-7.5 26.594h-24.058v-11.594h24.058z"/><path d="m107.259 378.55h-39.058c-4.142 0-7.5 3.358-7.5 7.5v26.594c0 4.142 3.358 7.5 7.5 7.5h39.058c4.142 0 7.5-3.358 7.5-7.5v-26.594c0-4.142-3.358-7.5-7.5-7.5zm-7.5 26.594h-24.058v-11.594h24.058z"/><path d="m107.259 435.577h-39.058c-4.142 0-7.5 3.358-7.5 7.5v26.594c0 4.142 3.358 7.5 7.5 7.5h39.058c4.142 0 7.5-3.358 7.5-7.5v-26.594c0-4.142-3.358-7.5-7.5-7.5zm-7.5 26.594h-24.058v-11.594h24.058z"/><path d="m442.54 36.391h-39.058c-4.143 0-7.5 3.358-7.5 7.5v26.594c0 4.142 3.357 7.5 7.5 7.5h39.058c4.143 0 7.5-3.358 7.5-7.5v-26.594c0-4.142-3.357-7.5-7.5-7.5zm-7.5 26.594h-24.058v-11.594h24.058z"/><path d="m442.54 93.418h-39.058c-4.143 0-7.5 3.358-7.5 7.5v26.594c0 4.142 3.357 7.5 7.5 7.5h39.058c4.143 0 7.5-3.358 7.5-7.5v-26.594c0-4.143-3.357-7.5-7.5-7.5zm-7.5 26.594h-24.058v-11.594h24.058z"/><path d="m442.54 150.444h-39.058c-4.143 0-7.5 3.358-7.5 7.5v26.594c0 4.142 3.357 7.5 7.5 7.5h39.058c4.143 0 7.5-3.358 7.5-7.5v-26.594c0-4.142-3.357-7.5-7.5-7.5zm-7.5 26.594h-24.058v-11.594h24.058z"/><path d="m442.54 207.471h-39.058c-4.143 0-7.5 3.358-7.5 7.5v26.594c0 4.142 3.357 7.5 7.5 7.5h39.058c4.143 0 7.5-3.358 7.5-7.5v-26.594c0-4.142-3.357-7.5-7.5-7.5zm-7.5 26.593h-24.058v-11.594h24.058z"/><path d="m442.54 264.497h-39.058c-4.143 0-7.5 3.358-7.5 7.5v26.594c0 4.142 3.357 7.5 7.5 7.5h39.058c4.143 0 7.5-3.358 7.5-7.5v-26.594c0-4.142-3.357-7.5-7.5-7.5zm-7.5 26.594h-24.058v-11.594h24.058z"/><path d="m442.54 321.524h-39.058c-4.143 0-7.5 3.358-7.5 7.5v26.594c0 4.142 3.357 7.5 7.5 7.5h39.058c4.143 0 7.5-3.358 7.5-7.5v-26.594c0-4.142-3.357-7.5-7.5-7.5zm-7.5 26.594h-24.058v-11.594h24.058z"/><path d="m442.54 378.55h-39.058c-4.143 0-7.5 3.358-7.5 7.5v26.594c0 4.142 3.357 7.5 7.5 7.5h39.058c4.143 0 7.5-3.358 7.5-7.5v-26.594c0-4.142-3.357-7.5-7.5-7.5zm-7.5 26.594h-24.058v-11.594h24.058z"/><path d="m442.54 435.577h-39.058c-4.143 0-7.5 3.358-7.5 7.5v26.594c0 4.142 3.357 7.5 7.5 7.5h39.058c4.143 0 7.5-3.358 7.5-7.5v-26.594c0-4.142-3.357-7.5-7.5-7.5zm-7.5 26.594h-24.058v-11.594h24.058z"/></svg>