<?xml version="1.0" encoding="iso-8859-1"?>
<!-- Generator: Adobe Illustrator 19.0.0, SVG Export Plug-In . SVG Version: 6.00 Build 0)  -->
<svg xmlns="http://www.w3.org/2000/svg" xmlns:xlink="http://www.w3.org/1999/xlink" version="1.1" id="Layer_1" x="0px" y="0px" viewBox="0 0 512 512" style="enable-background:new 0 0 512 512;" xml:space="preserve" width="512" height="512">
<g>
	<polyline style="fill:#4F5866;" points="64,119.75 80,135.75 80,143.75 32,143.75 32,135.75 48,119.75  "/>
	<rect x="32" y="175.75" style="fill:#FFE866;" width="48" height="312"/>
	<rect x="56" y="175.75" style="fill:#FFA238;" width="24" height="312"/>
	<rect x="112" y="303.75" style="fill:#FFE866;" width="48" height="184"/>
	<rect x="136" y="303.75" style="fill:#FFA238;" width="24" height="184"/>
	<rect x="352" y="111.75" style="fill:#FFE866;" width="48" height="376"/>
	<rect x="376" y="111.75" style="fill:#FFA238;" width="24" height="376"/>
	<rect x="432" y="287.75" style="fill:#FFE866;" width="48" height="200"/>
	<rect x="456" y="287.75" style="fill:#FFA238;" width="24" height="200"/>
	<rect x="192" y="239.75" style="fill:#FFE866;" width="48" height="248"/>
	<rect x="216" y="239.75" style="fill:#FFA238;" width="24" height="248"/>
	<rect x="272" y="351.75" style="fill:#FFE866;" width="48" height="136"/>
	<rect x="296" y="351.75" style="fill:#FFA238;" width="24" height="136"/>
	<circle style="fill:#FBCFA0;" cx="56" cy="103.75" r="16"/>
	<polyline style="fill:#4F5866;" points="144,247.75 160,263.75 160,271.75 112,271.75 112,263.75 128,247.75  "/>
	<circle style="fill:#BD6F4B;" cx="136" cy="231.75" r="16"/>
	<polyline style="fill:#4F5866;" points="224,183.75 240,199.75 240,207.75 192,207.75 192,199.75 208,183.75  "/>
	<circle style="fill:#FBCFA0;" cx="216" cy="167.75" r="16"/>
	<polyline style="fill:#4F5866;" points="304,295.75 320,311.75 320,319.75 272,319.75 272,311.75 288,295.75  "/>
	<circle style="fill:#BD6F4B;" cx="296" cy="279.75" r="16"/>
	<polyline style="fill:#4F5866;" points="384,55.75 400,71.75 400,79.75 352,79.75 352,71.75 368,55.75  "/>
	<circle style="fill:#FBCFA0;" cx="376" cy="39.75" r="16"/>
	<polyline style="fill:#4F5866;" points="464,231.75 480,247.75 480,255.75 432,255.75 432,247.75 448,231.75  "/>
	<circle style="fill:#BD6F4B;" cx="456" cy="215.75" r="16"/>
	<g>
		<path d="M439,480.75v-185h33v168h15v-183h-63v200h-17v-376h-63v376h-17v-136h-63v119h15v-104h33v121h-65v-248h-63v248h-17v-184    h-63v184H39v-297h33v280h15v-295H24v312H0v15h512v-15H439z M359,119.75h33v361h-33V119.75z M199,247.75h33v233h-33V247.75z     M119,311.75h33v169h-33V311.75z"/>
		<path d="M87,132.644l-13.393-13.643c3.514-4.108,5.768-9.434,5.768-15.251c0-12.958-10.48-23.5-23.438-23.5    s-23.469,10.542-23.469,23.5c0,5.817,1.895,11.143,5.408,15.251L24,132.644v19.106h63V132.644z M56,95.25    c4.687,0,8.5,3.813,8.5,8.5s-3.813,8.5-8.5,8.5s-8.5-3.813-8.5-8.5S51.313,95.25,56,95.25z M42.106,136.75l9.431-9.68    c1.446,0.279,2.937,0.305,4.463,0.305c1.526,0,3.017,0.036,4.463-0.243l9.431,9.618H42.106z"/>
		<path d="M167,260.644l-13.393-13.643c3.514-4.108,5.768-9.434,5.768-15.251c0-12.958-10.48-23.5-23.438-23.5    s-23.469,10.542-23.469,23.5c0,5.817,1.895,11.143,5.408,15.251L104,260.644v19.106h63V260.644z M136,223.25    c4.687,0,8.5,3.814,8.5,8.5s-3.813,8.5-8.5,8.5s-8.5-3.814-8.5-8.5S131.313,223.25,136,223.25z M122.106,264.75l9.431-9.68    c1.446,0.279,2.937,0.305,4.463,0.305c1.526,0,3.017,0.036,4.463-0.243l9.431,9.618H122.106z"/>
		<path d="M247,196.644l-13.393-13.643c3.514-4.108,5.768-9.434,5.768-15.251c0-12.958-10.48-23.5-23.438-23.5    c-12.958,0-23.469,10.542-23.469,23.5c0,5.817,1.895,11.143,5.408,15.251L184,196.644v19.106h63V196.644z M216,159.25    c4.687,0,8.5,3.814,8.5,8.5s-3.813,8.5-8.5,8.5s-8.5-3.814-8.5-8.5S211.313,159.25,216,159.25z M202.106,200.75l9.431-9.68    c1.446,0.279,2.937,0.305,4.463,0.305c1.526,0,3.017,0.036,4.463-0.243l9.431,9.618H202.106z"/>
		<path d="M327,308.644L313.607,295c3.514-4.108,5.768-9.434,5.768-15.25c0-12.958-10.48-23.5-23.438-23.5    c-12.958,0-23.469,10.542-23.469,23.5c0,5.817,1.895,11.143,5.408,15.25L264,308.644v19.106h63V308.644z M296,271.25    c4.687,0,8.5,3.814,8.5,8.5s-3.813,8.5-8.5,8.5s-8.5-3.814-8.5-8.5S291.313,271.25,296,271.25z M282.106,312.75l9.431-9.681    c1.446,0.279,2.937,0.306,4.463,0.306c1.526,0,3.017,0.036,4.463-0.243l9.431,9.618H282.106z"/>
		<path d="M407,68.644l-13.393-13.643c3.514-4.108,5.768-9.434,5.768-15.251c0-12.958-10.48-23.5-23.438-23.5    c-12.958,0-23.469,10.542-23.469,23.5c0,5.817,1.895,11.143,5.408,15.251L344,68.644V87.75h63V68.644z M376,31.25    c4.687,0,8.5,3.813,8.5,8.5s-3.813,8.5-8.5,8.5s-8.5-3.813-8.5-8.5S371.313,31.25,376,31.25z M362.106,72.75l9.431-9.68    c1.446,0.279,2.937,0.305,4.463,0.305c1.526,0,3.017,0.036,4.463-0.243l9.431,9.618H362.106z"/>
		<path d="M487,244.644l-13.392-13.643c3.513-4.108,5.767-9.434,5.767-15.251c0-12.958-10.479-23.5-23.438-23.5    c-12.958,0-23.469,10.542-23.469,23.5c0,5.817,1.895,11.143,5.408,15.251L424,244.644v19.106h63V244.644z M456,207.25    c4.687,0,8.5,3.814,8.5,8.5s-3.813,8.5-8.5,8.5s-8.5-3.814-8.5-8.5S451.313,207.25,456,207.25z M442.106,248.75l9.431-9.68    c1.446,0.279,2.937,0.305,4.463,0.305c1.526,0,3.017,0.036,4.463-0.243l9.431,9.618H442.106z"/>
	</g>
	<g>
		<rect x="128" y="448.25" style="fill:#FFFFFF;" width="16" height="15"/>
	</g>
	<g>
		<rect x="288" y="376.25" style="fill:#FFFFFF;" width="16" height="15"/>
	</g>
	<g>
		<rect x="368" y="136.25" style="fill:#FFFFFF;" width="16" height="15"/>
	</g>
</g>















</svg>
